<?xml version="1.0" encoding="utf-8"?><svg id="Photoshop_64" data-name="Photoshop 64" xmlns="http://www.w3.org/2000/svg" width="63.999" height="62" viewBox="0 0 63.999 62">
  <path id="Path_99550" data-name="Path 99550" d="M11.4,0H52.8A11.171,11.171,0,0,1,64,11.291V50.709A11.34,11.34,0,0,1,52.6,62H11.4A11.341,11.341,0,0,1,0,50.709V11.291A11.216,11.216,0,0,1,11.4,0Z" fill="#001e36"/>
  <path id="Path_99551" data-name="Path 99551" d="M7.2,35.8V8.4c0-.2,0-.4.2-.4h8.4a13.981,13.981,0,0,1,5.4.8,10.487,10.487,0,0,1,3.6,2,7.912,7.912,0,0,1,2,3,10.158,10.158,0,0,1,.6,3.4,9.756,9.756,0,0,1-1.6,5.6A9.481,9.481,0,0,1,21.6,26a18.854,18.854,0,0,1-6,1H13v8.6a.7.7,0,0,1-.2.4H7.6C7.4,36.2,7.2,36,7.2,35.8ZM13,13.2v9h2.4a15.438,15.438,0,0,0,3-.4,5.178,5.178,0,0,0,2.2-1.4,3.91,3.91,0,0,0,.8-2.8,5.325,5.325,0,0,0-.6-2.4A6.9,6.9,0,0,0,19,13.6a8.291,8.291,0,0,0-3.2-.6H14A4.069,4.069,0,0,0,13,13.2Z" transform="translate(7.2 7.722)" fill="#31a8ff"/>
  <path id="Path_99552" data-name="Path 99552" d="M32.6,17.2a10.047,10.047,0,0,0-2.6-1,15.438,15.438,0,0,0-3-.4,4.4,4.4,0,0,0-1.6.2c-.4,0-.6.2-.8.6-.2.2-.2.4-.2.8a.735.735,0,0,0,.2.6,4.362,4.362,0,0,0,1,.8,7.1,7.1,0,0,0,1.8.8,14.991,14.991,0,0,1,4,2,11.461,11.461,0,0,1,2.2,2.2,6.388,6.388,0,0,1,.6,2.8,8.149,8.149,0,0,1-1,3.6,8.855,8.855,0,0,1-3,2.4,12.1,12.1,0,0,1-4.8.8,22.038,22.038,0,0,1-3.6-.4,14.732,14.732,0,0,1-2.8-.8c-.2,0-.4-.4-.4-.6V27l.2-.2H19a17.3,17.3,0,0,0,3.4,1.4,15.544,15.544,0,0,0,3.2.4,5.352,5.352,0,0,0,2.2-.4,1.35,1.35,0,0,0,.8-1.2,1.1,1.1,0,0,0-.6-1,7.926,7.926,0,0,0-2.6-1.2,13.831,13.831,0,0,1-3.8-2,6.919,6.919,0,0,1-2-2.2,6.388,6.388,0,0,1-.6-2.8,6.043,6.043,0,0,1,1-3.2,5.516,5.516,0,0,1,2.8-2.4,10.711,10.711,0,0,1,4.8-1,19.4,19.4,0,0,1,3.4.2,10.548,10.548,0,0,1,2.4.6l.2.2V17l-.2.2Z" transform="translate(18.6 10.867)" fill="#31a8ff"/>
</svg>
